<svg xmlns="http://www.w3.org/2000/svg" width="69.915" height="67.121" viewBox="0 0 69.915 67.121"><g transform="translate(-287.149 -269.888)"><g transform="translate(269.079 248.363)"><path d="M339.9,337.01a44.258,44.258,0,0,1-12.314-1.711c-12.53-3.64-20.341-12.37-21.43-23.95l-.011-.2a21.549,21.549,0,0,1,8.508-17.752l2.035-1.659,1.456,2.185a15.886,15.886,0,0,0,15.3,6.331,19.867,19.867,0,0,1-3.855-10,18.562,18.562,0,0,1,4.409-14,18.343,18.343,0,0,1,13.049-6.342,20.2,20.2,0,0,1,20.544,15.956,5.828,5.828,0,0,0,4.244,1.554c1,.037,4.048.153,4.214,3.35l.011.223-.029.222a12.349,12.349,0,0,1-9.333,9.988c6.453,7.213,7.043,16.92,1.429,24.289C362.5,332.762,351.386,337.01,339.9,337.01ZM310.916,311c1.273,12.972,11.82,17.921,18,19.719,13.335,3.874,28.9.3,35.43-8.13,4.2-5.519,3.665-12.884-1.34-18.36l-4.569-3.687,1.655-1.868a2.9,2.9,0,0,0,.294-.416c.108-.172.223-.352.368-.555l.833-1.173,1.426.192a7.766,7.766,0,0,0,7.871-4.574,10.386,10.386,0,0,1-7.229-3.461l-.505-.532-.119-.723a15.37,15.37,0,0,0-15.734-12.76,13.624,13.624,0,0,0-9.695,4.7,13.83,13.83,0,0,0-3.27,10.436,15.239,15.239,0,0,0,5.019,9.889l.214.193,2.016,2.965-2.948,1.015c-10.734,3.7-18.784-.992-22.758-5.2A16.537,16.537,0,0,0,310.916,311Z" transform="translate(-288.079 -248.363)" fill="#fff"/></g></g></svg>